<svg width="68" height="69" viewBox="0 0 68 69" fill="none" xmlns="http://www.w3.org/2000/svg">
<g clip-path="url(#clip0_2050_998)">
<path d="M4.82343 37.4768H53.4015C60.4445 37.4768 66.174 31.747 66.174 24.7043C66.174 17.672 60.461 11.9488 53.4321 11.9321C52.7397 11.9217 48.2435 11.9839 44.8862 15.2573C42.6369 17.4503 41.4967 20.4637 41.4967 24.2132C41.4967 25.8689 42.8387 27.211 44.4944 27.211C46.1501 27.211 47.492 25.8688 47.492 24.2132C47.492 22.1597 48.0139 20.6003 49.0425 19.5789C50.6458 17.9867 53.1398 17.9293 53.3392 17.9273C53.3672 17.9282 53.3637 17.9278 53.4014 17.9278C57.1382 17.9278 60.1784 20.9678 60.1784 24.7043C60.1784 28.4411 57.1384 31.4811 53.4014 31.4811H4.82343C3.16776 31.4811 1.82565 32.8233 1.82565 34.4789C1.82565 36.1345 3.16776 37.4768 4.82343 37.4768Z" fill="white"/>
<path d="M4.82343 25.734H27.9782C35.0208 25.734 40.7504 20.0042 40.7504 12.9616C40.7504 5.9288 35.0377 0.205351 28.0085 0.189351C27.3079 0.179573 22.8189 0.242017 19.4624 3.51457C17.2133 5.70779 16.0729 8.72113 16.0729 12.4707C16.0729 14.1264 17.4149 15.4687 19.0707 15.4687C20.7264 15.4687 22.0682 14.1265 22.0682 12.4707C22.0682 10.4171 22.5901 8.85779 23.6188 7.83635C25.2218 6.24435 27.7158 6.18657 27.9159 6.18457C27.9439 6.18546 27.9401 6.18502 27.9781 6.18502C31.7147 6.18502 34.7549 9.22502 34.7549 12.9616C34.7549 16.6984 31.7149 19.7383 27.9781 19.7383H4.82343C3.16776 19.7383 1.82565 21.0806 1.82565 22.7363C1.82565 24.3921 3.16776 25.734 4.82343 25.734Z" fill="white"/>
<path d="M53.4015 42.6436H4.82343C3.16776 42.6436 1.82565 43.9858 1.82565 45.6413C1.82565 47.2968 3.16765 48.6391 4.82343 48.6391H53.4015C57.1383 48.6391 60.1785 51.6791 60.1785 55.4157C60.1785 59.1524 57.1385 62.1924 53.4015 62.1924C53.3639 62.1924 53.3673 62.1918 53.3393 62.1929C53.1397 62.1909 50.6457 62.1333 49.0427 60.5413C48.014 59.5199 47.4921 57.9606 47.4921 55.9068C47.4921 54.2511 46.1502 52.9088 44.4945 52.9088C42.8389 52.9088 41.4968 54.251 41.4968 55.9068C41.4968 59.6566 42.637 62.6699 44.8863 64.8629C48.1084 68.0048 52.376 68.189 53.3301 68.1888C53.3702 68.1888 53.4042 68.1886 53.4322 68.1881C60.4611 68.1714 66.1741 62.4482 66.1741 55.4159C66.1741 48.3731 60.4445 42.6436 53.4015 42.6436Z" fill="white"/>
</g>
<defs>
<clipPath id="clip0_2050_998">
<rect width="68" height="68" fill="white" transform="translate(0 0.188721)"/>
</clipPath>
</defs>
</svg>
