<svg width="67" height="67" viewBox="0 0 67 67" fill="none" xmlns="http://www.w3.org/2000/svg">
<g clip-path="url(#clip0_2050_987)">
<path d="M20.9179 55.6726L22.9846 58.6693C23.6046 59.5994 24.7413 60.2194 25.878 60.2194H40.8618C41.9985 60.2194 43.1352 59.7027 43.7553 58.6693L45.822 55.6726H20.9179ZM28.2548 58.9793H27.1181C26.498 58.9793 25.9814 58.4627 25.9814 57.8426C25.9814 57.2226 26.498 56.7059 27.1181 56.7059H28.2548C28.8748 56.7059 29.3915 57.2226 29.3915 57.8426C29.3915 58.4627 28.8748 58.9793 28.2548 58.9793ZM33.9383 58.9793H32.8016C32.1816 58.9793 31.6649 58.4627 31.6649 57.8426C31.6649 57.2226 32.1816 56.7059 32.8016 56.7059H33.9383C34.5583 56.7059 35.075 57.2226 35.075 57.8426C34.9716 58.4627 34.5583 58.9793 33.9383 58.9793ZM39.5185 58.9793H38.3818C37.7617 58.9793 37.2451 58.4627 37.2451 57.8426C37.2451 57.2226 37.7617 56.7059 38.3818 56.7059H39.5185C40.1385 56.7059 40.6552 57.2226 40.6552 57.8426C40.6552 58.4627 40.1385 58.9793 39.5185 58.9793ZM59.5658 13.0979H7.07077C6.45075 13.0979 5.93406 13.5112 5.93406 14.1313V46.5789C5.93406 47.199 6.45075 47.7157 7.07077 47.7157H59.5658C60.1858 47.7157 60.7025 47.199 60.7025 46.5789V14.1313C60.7025 13.5112 60.1858 13.0979 59.5658 13.0979ZM59.5658 13.0979H7.07077C6.45075 13.0979 5.93406 13.5112 5.93406 14.1313V46.5789C5.93406 47.199 6.45075 47.7157 7.07077 47.7157H59.5658C60.1858 47.7157 60.7025 47.199 60.7025 46.5789V14.1313C60.7025 13.5112 60.1858 13.0979 59.5658 13.0979ZM59.5658 13.0979H7.07077C6.45075 13.0979 5.93406 13.5112 5.93406 14.1313V46.5789C5.93406 47.199 6.45075 47.7157 7.07077 47.7157H59.5658C60.1858 47.7157 60.7025 47.199 60.7025 46.5789V14.1313C60.7025 13.5112 60.1858 13.0979 59.5658 13.0979ZM59.5658 13.0979H7.07077C6.45075 13.0979 5.93406 13.5112 5.93406 14.1313V46.5789C5.93406 47.199 6.45075 47.7157 7.07077 47.7157H59.5658C60.1858 47.7157 60.7025 47.199 60.7025 46.5789V14.1313C60.7025 13.5112 60.1858 13.0979 59.5658 13.0979ZM62.9759 7.31104H3.66066C1.8006 7.31104 0.250549 8.86108 0.250549 10.8245V49.9891C0.250549 51.8491 1.8006 53.3992 3.66066 53.3992H62.8725C64.7326 53.3992 66.2826 51.8491 66.2826 49.9891V10.8245C66.386 8.86108 64.8359 7.31104 62.9759 7.31104ZM62.8725 46.5789C62.8725 48.439 61.4258 49.8857 59.5658 49.8857H7.07077C5.21071 49.8857 3.76399 48.439 3.76399 46.5789V14.1313C3.76399 12.2712 5.21071 10.8245 7.07077 10.8245H59.5658C61.4258 10.8245 62.8725 12.2712 62.8725 14.1313V46.5789ZM59.5658 13.0979H7.07077C6.45075 13.0979 5.93406 13.5112 5.93406 14.1313V46.5789C5.93406 47.199 6.45075 47.7157 7.07077 47.7157H59.5658C60.1858 47.7157 60.7025 47.199 60.7025 46.5789V14.1313C60.7025 13.5112 60.1858 13.0979 59.5658 13.0979ZM59.5658 13.0979H7.07077C6.45075 13.0979 5.93406 13.5112 5.93406 14.1313V46.5789C5.93406 47.199 6.45075 47.7157 7.07077 47.7157H59.5658C60.1858 47.7157 60.7025 47.199 60.7025 46.5789V14.1313C60.7025 13.5112 60.1858 13.0979 59.5658 13.0979ZM59.5658 13.0979H7.07077C6.45075 13.0979 5.93406 13.5112 5.93406 14.1313V46.5789C5.93406 47.199 6.45075 47.7157 7.07077 47.7157H59.5658C60.1858 47.7157 60.7025 47.199 60.7025 46.5789V14.1313C60.7025 13.5112 60.1858 13.0979 59.5658 13.0979Z" fill="white"/>
</g>
<defs>
<clipPath id="clip0_2050_987">
<rect width="66.1354" height="66.1354" fill="white" transform="translate(0.250488 0.697021)"/>
</clipPath>
</defs>
</svg>
