<svg xmlns="http://www.w3.org/2000/svg" fill="#fff" width="575.065" height="575.066" style="enable-background:new 0 0 575.065 575.066" xml:space="preserve"><path d="m508.725 383.158-25.5-113.475-45.9-210.375c-2.549-11.475-12.75-19.125-24.225-19.125h-71.4c-14.023 0-25.5 11.475-25.5 25.5s11.477 25.5 25.5 25.5h51l40.8 182.325-75.225 159.374H211.65c-6.375-62.475-58.65-109.648-122.4-109.648-10.2 0-19.125 8.924-19.125 19.125 0 10.199 8.925 19.125 19.125 19.125 43.35 0 79.05 31.875 84.15 72.674h-26.775c-10.2-29.324-38.25-49.725-71.4-49.725-40.8 0-75.225 33.15-75.225 75.225 0 42.076 33.15 75.225 75.225 75.225 33.15 0 61.2-20.398 71.4-49.725l225.676-1.275c10.199 0 17.85-5.1 22.949-14.023l54.824-116.025L459 395.908c-20.4 12.75-34.426 36.975-34.426 63.75 0 40.801 33.15 75.225 75.227 75.225 42.074 0 75.225-33.148 75.225-75.225 1.275-40.799-28.051-72.674-66.301-76.5zM76.5 495.359c-20.4 0-36.975-16.576-36.975-36.977 0-20.398 16.575-36.975 36.975-36.975 11.475 0 20.4 5.1 28.05 12.75h-15.3c-14.025 0-25.5 11.475-25.5 25.5s11.475 25.5 25.5 25.5h15.3c-6.375 5.1-16.575 10.202-28.05 10.202zm424.574 0c-20.398 0-36.975-16.576-36.975-36.977 0-7.648 2.551-15.299 6.375-20.398l2.551 12.75c2.549 11.475 12.75 19.125 24.225 19.125h5.1c14.025-2.551 21.676-16.576 19.125-29.326l-2.549-14.025c11.475 6.375 20.398 19.125 20.398 33.15-1.273 19.125-17.849 35.701-38.25 35.701z"/></svg>