<svg width="353" height="251" viewBox="0 0 353 251" fill="none" xmlns="http://www.w3.org/2000/svg">
<path opacity="0.3" d="M352.22 22.1463C352.06 9.66626 343.59 0.55626 331.66 0.34626C305.56 -0.10374 279.45 -0.13374 253.35 0.36626C240.41 0.61626 231.49 10.1663 231.09 22.2963C230.66 35.0563 239.56 45.0363 252.86 46.1463C258.61 46.6263 264.44 46.2263 269.61 46.2263C240.71 75.2063 212.24 103.756 182.54 133.536C169.24 119.906 155.06 105.176 140.66 90.6663C122.85 72.7263 113.03 72.7063 95.47 90.2363C63.64 122.046 31.82 153.866 0 185.676V250.756C0.47 250.286 0.93 249.826 1.39 249.366C39.81 210.966 78.15 172.486 117.91 132.646C134.1 149.026 149.03 164.296 164.14 179.376C179.6 194.806 190.19 194.806 205.72 179.356C236.04 149.176 266.24 118.876 296.54 88.6663C299.01 86.2063 301.81 84.0763 306.34 80.1763C306.34 88.8763 305.73 94.9063 306.47 100.766C308.07 113.516 317.88 121.686 330.18 121.306C342.49 120.926 351.81 112.166 352.06 99.1263C352.55 73.4763 352.55 47.8063 352.23 22.1563L352.22 22.1463Z" fill="white"/>
</svg>
