<svg width="23" height="26" viewBox="0 0 23 26" fill="none" xmlns="http://www.w3.org/2000/svg">
<path d="M21.1965 15.0915L17.5899 12.8973L21.1965 10.7031C21.5717 10.4784 21.8984 10.1812 22.1575 9.8289C22.4166 9.4766 22.603 9.07622 22.7057 8.65112C22.8085 8.22603 22.8255 7.78473 22.7559 7.35298C22.6863 6.92122 22.5314 6.50765 22.3002 6.13639C22.0691 5.76513 21.7663 5.44362 21.4096 5.19061C21.0529 4.9376 20.6494 4.75816 20.2226 4.66275C19.7958 4.56735 19.3543 4.55789 18.9238 4.63493C18.4933 4.71197 18.0824 4.87396 17.7152 5.11146L14.4658 7.19176V3.5779C14.4658 2.75402 14.1385 1.96387 13.556 1.3813C12.9734 0.798723 12.1833 0.471436 11.3594 0.471436C10.5355 0.471436 9.74534 0.798723 9.16276 1.3813C8.58019 1.96387 8.2529 2.75402 8.2529 3.5779V7.29324L5.00354 5.11146C4.26252 4.66763 3.37681 4.53263 2.53721 4.73555C1.69761 4.93847 0.971319 5.46307 0.514791 6.19634C0.0582631 6.92961 -0.0919644 7.81287 0.0964705 8.65583C0.284905 9.4988 0.796922 10.234 1.52222 10.7031L5.12883 12.8973L1.52222 15.0915C0.796922 15.5606 0.284905 16.2958 0.0964705 17.1388C-0.0919644 17.9817 0.0582631 18.865 0.514791 19.5983C0.971319 20.3315 1.69761 20.8561 2.53721 21.0591C3.37681 21.262 4.26252 21.127 5.00354 20.6831L8.2529 18.5728V22.2167C8.2529 23.0406 8.58019 23.8307 9.16276 24.4133C9.74534 24.9959 10.5355 25.3232 11.3594 25.3232C12.1833 25.3232 12.9734 24.9959 13.556 24.4133C14.1385 23.8307 14.4658 23.0406 14.4658 22.2167V18.5097L17.7152 20.6842C18.4562 21.128 19.3419 21.263 20.1815 21.0601C21.0211 20.8572 21.7474 20.3326 22.2039 19.5993C22.6605 18.866 22.8107 17.9828 22.6223 17.1398C22.4338 16.2968 21.9218 15.5616 21.1965 15.0925V15.0915Z" fill="white"/>
</svg>
