<svg width="19" height="21" viewBox="0 0 19 21" fill="none" xmlns="http://www.w3.org/2000/svg">
<path d="M19 7.23845C19 9.1447 18.3988 10.8869 17.4711 12.5158C16.0943 14.9338 14.1684 16.7892 12.0049 18.3947C11.4928 18.7736 10.9658 19.133 10.4389 19.4845C9.85996 19.8674 9.24766 19.9142 8.66133 19.5392C6.1082 17.8947 3.78516 15.965 2.04844 13.3478C0.916602 11.6564 0.155859 9.80486 0.0185547 7.71892C0.00742187 7.54705 0 7.37517 0 7.2072C0 5.30876 0.727344 3.74236 2.28223 2.6447C3.92617 1.48064 5.69629 1.32439 7.45898 2.34783C8.18633 2.7697 8.83203 3.34392 9.5 3.84001C10.1717 3.34392 10.8322 2.73064 11.5893 2.32048C14.918 0.515795 18.8627 2.98064 18.9963 6.93376C19 7.03923 19 7.14079 19 7.23845Z" fill="#009B3A"/>
<path d="M9.5 6.26581L2.74609 10.7346L9.5 15.2033L16.2539 10.7346L9.5 6.26581Z" fill="#FEDF00"/>
<path d="M9.49999 13.4338C10.9162 13.4338 12.0642 12.2253 12.0642 10.7346C12.0642 9.24382 10.9162 8.03534 9.49999 8.03534C8.08379 8.03534 6.93573 9.24382 6.93573 10.7346C6.93573 12.2253 8.08379 13.4338 9.49999 13.4338Z" fill="#002776"/>
<path d="M9.09548 11.8088L9.36638 11.8478L9.1697 12.051L9.21794 12.3322L8.97673 12.1994L8.73552 12.3361L8.78005 12.051L8.58337 11.8517L8.85427 11.8088L8.97302 11.551L9.09548 11.8088Z" fill="white"/>
<path d="M10.8137 9.6994L11.0846 9.73846L10.8916 9.94159L10.9399 10.2267L10.6949 10.0939L10.4574 10.2267L10.502 9.9455L10.3016 9.74628L10.5725 9.70331L10.6912 9.4455L10.8137 9.6994Z" fill="white"/>
<path d="M9.28104 8.77753L9.55194 8.81659L9.35897 9.01971L9.40721 9.30487L9.16229 9.17206L8.92108 9.30487L8.96561 9.02362L8.77264 8.8244L9.03983 8.78143L9.15858 8.52362L9.28104 8.77753Z" fill="white"/>
<path d="M8.06387 10.0314L8.33477 10.0705L8.13809 10.2697L8.18633 10.5549L7.94512 10.4221L7.70391 10.5588L7.74844 10.2736L7.55176 10.0744L7.82266 10.0314L7.94141 9.77362L8.06387 10.0314Z" fill="white"/>
<path d="M9.45918 10.2111L9.62988 10.2346L9.50742 10.3635L9.53711 10.5471L9.38125 10.4611L9.2291 10.5471L9.25508 10.3674L9.12891 10.2385L9.30332 10.2111L9.38125 10.0471L9.45918 10.2111Z" fill="white"/>
</svg>
