<?xml version="1.0" encoding="UTF-8"?>
<svg id="Capa_2" data-name="Capa 2" xmlns="http://www.w3.org/2000/svg" viewBox="0 0 604.66 435.51">
  <defs>
    <style>
      .cls-1 {
        fill: #fff;
        stroke-width: 0px;
      }
    </style>
  </defs>
  <g id="Capa_1-2" data-name="Capa 1">
    <g>
      <path opacity="0.3"  class="cls-1" d="M19.4,435.51v-148.79h174.24v148.79h19.25c0-123.33-.01-246.66-.15-369.99,0-5.5,1.68-7.82,6.7-9.74,27.96-10.68,55.77-21.76,84.4-33.01v412.73h19.89V23.2c17.86,7.49,35.19,14.76,52.53,22.03,16.96,7.11,33.84,14.4,50.92,21.2,4.84,1.93,6.23,4.54,6.19,9.58-.34,45.01-.54,90.02-.52,135.04.04,74.82.14,149.65.24,224.47h19.35v-214.78h33.51v214.78h19.73v-207.59c1.67.76,2.89,1.2,4,1.84,23.98,13.91,47.98,27.77,71.84,41.89,1.9,1.12,3.87,4.06,3.88,6.16.1,52.57.13,105.13.13,157.7h18.98c0-53.96.03-107.93.16-161.89.02-7.58-2.49-12.15-9-15.87-30.76-17.6-61.28-35.62-92.02-53.26-3.14-1.8-7.15-2.81-10.79-2.91-13.34-.34-26.69-.13-40.86-.13,0-3.44,0-6.1,0-8.77,0-42.07-.11-84.14.1-126.22.03-7.18-2.68-11.13-9.33-13.88-41.11-17.04-82.05-34.49-123.18-51.48-3.36-1.39-8.19-1.47-11.58-.17-34.33,13.19-68.5,26.81-102.72,40.27-10.4,4.09-11.27,5.26-11.27,16.53,0,66.86,0,133.72,0,200.58v8.88c-3.82,0-6.53,0-9.23,0-56.41,0-112.81,0-169.22,0-13.25,0-15.55,2.26-15.55,15.34C0,333.52,0,384.52,0,435.51h19.4Z"/>
      <path opacity="0.3"  class="cls-1" d="M400,178.66c.75,5.04,3.9,8.12,9.27,8.11,5.37,0,8.75-3.11,9.2-8.14.58-6.51.5-13.14.06-19.67-.34-5.16-3.78-8.33-8.96-8.47-5.52-.14-8.92,3.03-9.65,8.5-.38,2.89-.07,5.88-.07,8.82.01,0,.03,0,.04,0,0,3.62-.43,7.31.1,10.85Z"/>
      <path opacity="0.3"  class="cls-1" d="M408.94,257.58c5.67.14,8.86-3.16,9.64-8.51.45-3.11.08-6.33.08-9.5-.02,0-.03,0-.05,0,0-3.4.4-6.85-.09-10.18-.75-5.11-4.13-8.2-9.29-8.19-5.16.01-8.79,3.11-9.21,8.23-.54,6.52-.55,13.16-.04,19.68.39,5.03,3.62,8.33,8.96,8.47Z"/>
      <path opacity="0.3"  class="cls-1" d="M346.02,162.83c5.04-.37,8.35-3.39,8.69-8.74.2-3.16.04-6.34.04-9.51,0-3.17.19-6.35-.05-9.51-.37-4.92-3.17-7.98-8.08-8.53-5.23-.59-9.45,1.84-9.97,6.99-.75,7.36-.67,14.91,0,22.28.45,4.89,4.6,7.36,9.37,7.02Z"/>
      <path opacity="0.3"  class="cls-1" d="M376.98,350.73c-5.05.29-8.39,3.29-8.79,8.62-.23,3.15-.04,6.33-.04,9.5h.04c0,3.4-.29,6.82.07,10.18.53,4.93,3.67,7.77,8.53,8.1,4.88.33,8.92-2.11,9.38-6.95.71-7.37.68-14.9.06-22.29-.41-4.9-4.47-7.44-9.25-7.16Z"/>
      <path opacity="0.3"  class="cls-1" d="M346.07,92.03c4.72-.33,8.05-3.15,8.57-8.13.35-3.36.07-6.78.07-10.18.02,0,.03,0,.05,0,0-3.17.23-6.36-.05-9.5-.47-5.25-3.59-8.28-8.8-8.57-4.93-.27-8.84,2.31-9.27,7.12-.66,7.38-.64,14.91.05,22.28.46,4.88,4.63,7.31,9.39,6.98Z"/>
      <path opacity="0.3"  class="cls-1" d="M409.48,399.21c5.47-.15,8.66-3.63,9.16-9.11.27-2.92.05-5.89.04-8.84,0-3.17.27-6.37-.06-9.51-.57-5.43-3.68-8.88-9.26-8.95-5.59-.07-9.02,3.33-9.41,8.74-.46,6.31-.47,12.71.01,19.02.41,5.45,4.03,8.8,9.52,8.65Z"/>
      <path opacity="0.3"  class="cls-1" d="M408.99,291.98c-5.18.11-8.35,3.37-9.05,8.48-.4,2.89-.07,5.88-.07,8.83-.01,0-.02,0-.03,0,0,3.4-.29,6.83.07,10.19.57,5.42,3.72,8.89,9.29,8.93,5.57.04,9-3.37,9.38-8.79.45-6.31.47-12.71-.03-19.02-.43-5.44-4.04-8.73-9.56-8.61Z"/>
      <path opacity="0.3"  class="cls-1" d="M376.65,280.01c-5.05.43-8.24,3.55-8.5,8.91-.15,2.93-.03,5.88-.03,8.82.01,0,.02,0,.04,0,0,3.39-.23,6.81.05,10.18.41,4.92,3.32,7.91,8.23,8.36,5.23.48,9.31-2.03,9.82-7.2.7-7.15.67-14.46.05-21.62-.45-5.23-4.57-7.89-9.67-7.45Z"/>
      <path opacity="0.3"  class="cls-1" d="M409.31,115.96c5.68-.04,8.7-3.42,9.31-8.82.35-3.13.06-6.33.07-9.49,0-2.94.24-5.9-.04-8.82-.52-5.42-3.47-8.77-9.12-9.06-5.35-.27-9.36,3.36-9.65,9.18-.31,6.09-.41,12.24.05,18.31.41,5.4,3.7,8.73,9.38,8.7Z"/>
      <path opacity="0.3"  class="cls-1" d="M354.72,347.48c-.37-5.33-3.62-8.32-8.71-8.67-4.8-.33-8.9,2.11-9.35,6.99-.67,7.36-.7,14.88,0,22.24.45,4.79,4.35,7.3,9.31,7,5.27-.31,8.28-3.36,8.74-8.58.28-3.14.05-6.32.05-9.49,0-3.16.18-6.34-.04-9.49Z"/>
      <path opacity="0.3"  class="cls-1" d="M354.65,205.38c-.5-4.93-3.52-7.77-8.46-8.12-4.92-.34-8.99,1.93-9.48,6.78-.75,7.36-.79,14.9-.11,22.27.48,5.18,4.67,7.65,9.87,7.14,4.88-.47,7.83-3.43,8.23-8.39.25-3.15.05-6.33.05-9.5,0,0-.02,0-.02,0,0-3.39.28-6.82-.07-10.18Z"/>
      <path opacity="0.3"  class="cls-1" d="M354.72,276.69c-.4-5.28-3.5-8.31-8.71-8.63-4.87-.3-8.91,2.08-9.36,6.95-.68,7.36-.74,14.89,0,22.24.53,5.16,4.77,7.51,9.98,6.93,4.94-.54,7.69-3.61,8.07-8.51.24-3.15.05-6.33.05-9.49s.2-6.34-.04-9.49Z"/>
      <path opacity="0.3"  class="cls-1" d="M368.27,237.56c.56,4.92,3.66,7.68,8.6,7.94,4.94.26,8.87-2.14,9.32-6.97.68-7.37.66-14.88,0-22.25-.44-4.89-4.49-7.29-9.32-6.99-5.14.32-8.34,3.3-8.71,8.63-.22,3.15-.04,6.33-.04,9.49.02,0,.04,0,.06,0,0,3.39-.31,6.81.07,10.16Z"/>
      <path opacity="0.3"  class="cls-1" d="M376.53,67.78c-4.95.4-8.03,3.34-8.28,8.26-.33,6.54-.3,13.12,0,19.66.23,5.01,3.54,7.88,8.32,8.28,5.13.44,8.83-2.13,9.8-7.34.65-3.52.52-7.19.73-10.77-.22-3.65-.04-7.33-.73-10.83-1.01-5.15-4.59-7.69-9.84-7.26Z"/>
      <path opacity="0.3"  class="cls-1" d="M376.56,138.58c-4.95.37-7.87,3.28-8.34,8.21-.3,3.13-.06,6.32-.06,9.48,0,3.39-.23,6.8.05,10.16.42,4.95,3.39,7.86,8.3,8.26,5.21.42,9.28-2.05,9.76-7.24.67-7.14.68-14.44.02-21.58-.48-5.18-4.5-7.67-9.74-7.28Z"/>
      <path opacity="0.3"  class="cls-1" d="M237.09,359.8c-5.7.11-8.62,3.54-9.21,8.93-.31,2.91-.06,5.88-.06,8.82,0,3.17-.25,6.36.05,9.5.53,5.46,3.66,8.87,9.22,8.97,5.56.09,9.08-3.17,9.47-8.64.45-6.31.5-12.7,0-19-.43-5.37-3.77-8.7-9.48-8.59Z"/>
      <path opacity="0.3"  class="cls-1" d="M237.08,288.77c-5.7.11-8.63,3.54-9.21,8.94-.31,2.91-.06,5.88-.06,8.83,0,3.17-.25,6.37.05,9.51.53,5.45,3.63,8.86,9.22,8.95,5.59.09,9.08-3.17,9.47-8.63.46-6.31.5-12.7,0-19-.43-5.38-3.78-8.7-9.49-8.59Z"/>
      <path opacity="0.3"  class="cls-1" d="M237.36,253.94c5.64-.06,8.71-3.45,9.28-8.87.33-3.13.06-6.33.06-9.5-.02,0-.03,0-.05,0,0-3.17.36-6.39-.08-9.49-.72-5.05-3.71-8.24-9.07-8.33-5.69-.1-9.1,3.13-9.53,8.52-.51,6.3-.47,12.69-.02,18.99.38,5.44,3.78,8.73,9.41,8.68Z"/>
      <path opacity="0.3"  class="cls-1" d="M236.87,182.91c5.63.18,8.94-2.97,9.71-8.38.44-3.1.08-6.32.08-9.49.02,0,.03,0,.05,0,0-3.17.29-6.37-.06-9.5-.61-5.4-3.64-8.77-9.32-8.81-5.68-.03-9,3.29-9.38,8.7-.44,6.3-.43,12.69.03,18.99.37,5.1,3.59,8.32,8.9,8.49Z"/>
      <path opacity="0.3"  class="cls-1" d="M237.02,111.88c5.6.28,9.33-3.57,9.7-9.88.16-2.71.03-5.43.03-8.14h-.02c0-2.94.2-5.9-.04-8.82-.47-5.76-3.53-9.38-9.52-9.32-6,.06-9.05,3.75-9.31,9.52-.25,5.65-.24,11.32-.01,16.97.23,5.74,3.16,9.38,9.18,9.68Z"/>
      <path opacity="0.3"  class="cls-1" d="M271.25,376.9c.29,5.33,3.98,8.15,9.08,8.16,5.12,0,8.56-2.88,9.11-8.18.35-3.35.06-6.76.06-10.15-.02,0-.03,0-.05,0,0-3.38.36-6.82-.08-10.14-.71-5.24-4.14-7.92-9.39-7.77-4.94.14-8.35,2.84-8.67,7.78-.45,6.74-.43,13.56-.06,20.31Z"/>
      <path opacity="0.3"  class="cls-1" d="M271.18,224.27c0,3.61-.3,7.26.07,10.83.52,4.97,3.76,7.67,8.64,7.88,4.86.22,8.84-2.14,9.25-7.04.62-7.39.65-14.91-.04-22.29-.45-4.88-4.71-7.89-9.29-6.61-3.26.91-6.69,4.12-8.29,7.22-1.38,2.67-.29,6.62-.29,10.01-.02,0-.04,0-.06,0Z"/>
      <path opacity="0.3"  class="cls-1" d="M280.2,100.9c4.92.06,8.28-2.45,9.1-7.34.59-3.53.43-7.19.6-10.81-.18-3.61-.02-7.27-.62-10.8-.84-4.92-4.31-7.38-9.17-7.27-4.85.11-8.46,2.71-8.79,7.67-.46,6.96-.47,14.01.03,20.97.35,4.93,3.93,7.51,8.85,7.57Z"/>
      <path opacity="0.3"  class="cls-1" d="M271.29,164.22c.59,4.94,3.87,7.57,8.77,7.71,4.9.14,8.72-2.31,9.14-7.2.61-7.16.58-14.44.05-21.61-.37-4.93-4.14-7.46-9-7.39-5.19.08-8.52,2.89-9.05,8.2-.31,3.13-.06,6.31-.06,9.47.02,0,.04,0,.06,0,0,3.61-.34,7.26.08,10.82Z"/>
      <path opacity="0.3"  class="cls-1" d="M271.22,305.85c.53,5.31,3.94,8.1,9.1,8.14,4.84.04,8.57-2.52,8.94-7.47.53-6.95.56-14,.06-20.95-.37-5.24-4.09-7.94-9.34-7.77-5.28.17-8.36,3.18-8.83,8.42-.28,3.14-.05,6.32-.05,9.48.02,0,.03,0,.05,0,0,3.39-.27,6.8.06,10.15Z"/>
      <path opacity="0.3"  class="cls-1" d="M172.14,347.91c-6.98-.43-14.03-.41-21.02-.02-5.48.3-8.85,3.84-8.87,9.29-.02,5.45,3.3,8.83,8.79,9.39,3.36.35,6.78.06,10.17.07,3.62,0,7.26.29,10.85-.06,5.46-.54,8.86-3.85,8.89-9.31.03-5.48-3.37-9.02-8.81-9.36Z"/>
      <path opacity="0.3"  class="cls-1" d="M117,347.89c-7.02-.43-14.12-.47-21.14.05-5.42.4-8.8,3.94-8.62,9.56.18,5.59,3.7,8.65,9.17,9.11,3.39.29,6.82.05,10.23.05,3.41,0,6.85.27,10.23-.06,5.48-.54,8.87-3.65,8.91-9.31.05-5.68-3.33-9.07-8.78-9.4Z"/>
      <path opacity="0.3"  class="cls-1" d="M41.99,366.67c3.17.19,6.36.03,9.55.03,3.18,0,6.38.17,9.55-.04,5.75-.38,9.55-3.25,9.65-9.29.1-6.05-3.64-9.23-9.37-9.53-6.58-.34-13.2-.32-19.77,0-5.92.28-9.56,4.22-9.31,9.59.28,6.08,3.96,8.89,9.71,9.24Z"/>
      <path opacity="0.3"  class="cls-1" d="M150.03,410.57c3.59.41,7.26.08,10.89.08,4.09,0,8.21.35,12.25-.09,5.01-.55,7.69-4.11,7.78-8.87.09-4.77-2.49-8.73-7.48-9.06-7.91-.52-15.9-.53-23.8,0-5,.33-7.55,4.33-7.45,9.09.1,4.75,2.77,8.28,7.8,8.86Z"/>
      <path opacity="0.3"  class="cls-1" d="M63.19,392.57c-7.68-.51-15.44-.53-23.11-.04-5.28.34-7.95,4.11-7.78,9.4.17,4.97,2.92,8.15,7.89,8.68,3.82.4,7.71.08,11.56.08,0,0,0,.02,0,.03,3.63,0,7.3.31,10.89-.07,5.28-.57,8.14-3.89,8.14-9.17,0-4.95-2.65-8.57-7.59-8.9Z"/>
      <path opacity="0.3"  class="cls-1" d="M150.41,321.98c7.47.39,15,.42,22.47-.02,5.33-.32,8.2-4.16,8.06-9.26-.13-5.08-3.14-8.52-8.5-8.93-3.61-.28-7.26-.05-10.9-.05-3.63,0-7.29-.24-10.9.06-5.38.44-8.33,3.96-8.4,9.02-.07,5.07,2.81,8.9,8.17,9.18Z"/>
      <path opacity="0.3"  class="cls-1" d="M40.68,322.05c7.24.43,14.54.38,21.78-.02,5.25-.29,8.29-3.69,8.31-8.99.03-5.64-3.14-8.87-8.74-9.31-3.38-.27-6.81-.05-10.21-.05-3.63,0-7.28-.21-10.89.05-5.27.39-8.4,3.39-8.61,8.73-.23,5.65,2.79,9.27,8.37,9.6Z"/>
      <path opacity="0.3"  class="cls-1" d="M95.32,410.63c3.59.4,7.26.08,10.89.07,3.86,0,7.75.29,11.57-.08,5-.48,7.79-3.71,7.99-8.61.22-5.21-2.41-9.11-7.72-9.46-7.68-.51-15.44-.46-23.12,0-4.97.3-7.67,3.96-7.71,8.84-.04,5.21,2.81,8.65,8.1,9.23Z"/>
      <path opacity="0.3"  class="cls-1" d="M95.05,321.95c3.8.47,7.7.09,11.56.09,0,.03,0,.06,0,.09,3.63,0,7.29.27,10.89-.06,5.31-.5,8.26-3.84,8.29-9.06.04-5.19-2.78-8.88-8.12-9.16-7.47-.39-14.99-.38-22.46.03-4.98.27-7.79,3.74-7.97,8.62-.2,5.21,2.52,8.8,7.81,9.46Z"/>
      <path opacity="0.3"  class="cls-1" d="M551.21,396.9c.44,5.59,3.73,8.85,9.11,9.07,5.13.21,8.68-2.87,9.4-7.97.57-3.98.63-8.18.02-12.14-.83-5.34-4.42-8.51-9.99-8.02-5.13.45-8.07,3.68-8.54,8.9-.14,1.57-.02,3.16-.02,4.74,0,1.81-.12,3.62.02,5.42Z"/>
      <path opacity="0.3"  class="cls-1" d="M551.17,349.24c.31,6.17,4.11,10.4,9.46,10.1,5.88-.34,8.98-3.9,9.35-9.61.24-3.58.37-7.29-.29-10.78-.94-4.97-4.27-7.96-9.58-7.68-5.24.27-8.18,3.38-8.86,8.51-.24,1.77-.04,3.6-.04,5.41h-.06c0,1.35-.06,2.71.01,4.06Z"/>
      <path opacity="0.3"  class="cls-1" d="M559.51,312.52c5.28.51,8.76-2.07,10.09-7.14.57-2.16.46-4.5.66-6.75-.08,0-.16,0-.23-.01,0-1.59.18-3.21-.03-4.77-.77-5.67-3.7-9.39-9.8-9.16-6.05.24-8.87,3.98-9.02,9.83-.08,3.18-.22,6.39.09,9.55.47,4.89,3.26,7.98,8.25,8.46Z"/>
      <path opacity="0.3"  class="cls-1" d="M538.02,325.51c0-1.58.06-3.16-.01-4.74-.27-5.87-3.42-9.56-9.2-9.61-5.75-.05-9.15,3.48-9.35,9.4-.13,3.82-.28,7.72.32,11.47.79,4.88,4.55,8.06,9.08,7.05,3.29-.74,6.32-4.11,8.65-6.97,1.17-1.43.53-4.35.71-6.59-.07,0-.14,0-.21-.01Z"/>
      <path opacity="0.3"  class="cls-1" d="M528.8,292.69c5.75-.04,8.95-3.72,9.21-9.61.07-1.58.01-3.16.02-4.74,0-1.35.05-2.71,0-4.06-.25-5.82-3.18-9.35-9.07-9.78-5.41-.39-9.18,3.66-9.53,9.96-.16,2.92-.11,5.87.02,8.79.25,5.94,3.63,9.47,9.35,9.43Z"/>
      <path opacity="0.3"  class="cls-1" d="M528.64,385.89c4.94.04,8.16-2.58,9.1-7.5.42-2.21.33-4.52.47-6.79-.06,0-.11,0-.17,0,0-1.36.05-2.73,0-4.09-.24-5.94-3.42-9.35-9.25-9.78-5.07-.37-9,3.8-9.31,9.64-.19,3.62-.25,7.31.23,10.89.67,4.96,4,7.59,8.94,7.63Z"/>
      <path opacity="0.3"  class="cls-1" d="M519.25,418.55s.1,0,.15,0c0,1.36-.04,2.73,0,4.09.21,5.82,2.93,9.49,9,9.84,5.66.32,9.3-3.41,9.59-9.92.16-3.61.24-7.32-.37-10.85-.85-4.94-4.62-8.05-9.22-6.9-3.29.82-6.27,4.2-8.56,7.09-1.15,1.46-.46,4.38-.6,6.65Z"/>
    </g>
  </g>
</svg>