<svg width="196" height="36" viewBox="0 0 196 36" fill="none" xmlns="http://www.w3.org/2000/svg">
<g clip-path="url(#clip0_1_360)">
<path fill-rule="evenodd" clip-rule="evenodd" d="M11.6795 35.9836V20.9104C11.6795 19.4625 11.9319 17.9755 12.4726 16.812C15.7923 8.44518 29.0744 8.68049 32.2106 16.8316C32.689 18.0768 32.9872 19.42 32.9872 20.9104V35.9836H24.0145V22.4236C24.0145 21.0476 24.0473 19.4625 22.2384 19.4625C21.1602 19.4625 20.6555 20.345 20.6555 21.9856V35.9869H11.6763L11.6795 35.9836Z" fill="#36A53C"/>
<path fill-rule="evenodd" clip-rule="evenodd" d="M35.1895 6.23584H44.6701V11.3115H50.2674V17.4591H44.6701V24.7441C44.6701 26.6037 45.7155 27.643 47.7735 27.643H50.2707V35.9738H44.8602C42.93 35.9738 41.3537 35.6862 40.1838 35.245C39.0138 34.8038 37.9684 33.9148 37.0836 32.9115C36.5134 32.029 35.9137 31.0191 35.6286 29.8524C35.3435 28.6823 35.1895 27.6463 35.1895 26.7965V6.23584Z" fill="#36A53C"/>
<path fill-rule="evenodd" clip-rule="evenodd" d="M157.907 18.9985C160.076 18.9985 161.836 20.7536 161.836 22.9139C161.836 25.0742 160.076 26.8358 157.907 26.8358C155.737 26.8358 153.974 25.084 153.974 22.9139C153.974 20.7438 155.734 18.9985 157.907 18.9985ZM157.95 10.2461C165.097 10.2461 170.946 15.7596 170.946 22.9172L170.91 35.9445L161.551 35.9053V32.3428L159.781 35.9053C152.136 36.7583 145.274 30.6074 145.274 22.9139C145.274 15.7858 151.084 10.2428 157.946 10.2428" fill="#36A53C"/>
<path fill-rule="evenodd" clip-rule="evenodd" d="M127.718 35.9837H136.665V22.0151C136.665 19.2109 139.48 17.3774 141.476 19.6162L146.758 14.485C144.861 11.939 142.115 10.5859 139.418 10.2951C137.212 10.0434 135.043 10.5075 133.411 11.3801C131.189 12.56 129.406 14.4654 128.439 16.812C127.351 19.1455 127.715 23.0184 127.715 25.9174V35.9804L127.718 35.9837Z" fill="#36A53C"/>
<path fill-rule="evenodd" clip-rule="evenodd" d="M79.3024 35.781H88.2489V21.8124C88.2489 19.0083 91.0639 17.1748 93.0597 19.4135L98.3424 14.2823C96.4449 11.7364 93.6987 10.3833 91.0017 10.0924C88.7962 9.84077 86.6267 10.3049 84.9947 11.1775C82.7729 12.3573 80.9934 14.2627 80.0234 16.6094C78.9354 18.9429 79.2991 22.8158 79.2991 25.7148V35.7778L79.3024 35.781Z" fill="#36A53C"/>
<path fill-rule="evenodd" clip-rule="evenodd" d="M172.821 35.853V27.1855C185.848 27.4666 171.12 9.34076 196 10.0598V19.0181C180.761 18.0997 194.735 37.8107 172.821 35.853Z" fill="#36A53C"/>
<path fill-rule="evenodd" clip-rule="evenodd" d="M113.004 19.4561C115.174 19.4561 116.934 21.2079 116.934 23.378C116.934 25.5481 115.174 27.2934 113.004 27.2934C110.835 27.2934 109.075 25.5383 109.075 23.378C109.075 21.2177 110.832 19.4561 113.004 19.4561ZM109.458 15.6224L111.228 10.5435C116.629 9.42574 122.79 12.4097 124.894 17.6062C125.461 19.1783 125.746 20.9529 125.746 22.6851C125.746 24.7343 125.457 26.6266 124.73 28.385C124.002 29.9995 123.124 31.2872 121.954 32.454C120.784 33.6142 119.483 34.5064 117.877 35.0686C114.181 36.5622 109.501 36.2223 106.145 34.062C104.087 32.735 102.632 31.0029 101.626 28.6693C100.581 26.3358 100.007 23.7244 100.007 20.7862V1.46423H109.491L109.458 15.6224Z" fill="#36A53C"/>
<path fill-rule="evenodd" clip-rule="evenodd" d="M77.2676 23.6427L59.5942 23.6786C59.9579 26.6332 62.7828 28.5712 65.6863 27.5777C66.1156 27.4306 66.4924 27.1888 66.9119 26.8946C67.1053 26.7672 67.2986 26.6397 67.4035 26.4796L75.0948 30.1237C74.3411 31.4048 72.9713 32.8069 71.2836 33.8855C69.9432 34.745 68.3964 35.3823 66.8005 35.7124C65.8338 35.9118 64.8113 36.0687 63.838 35.9771C56.8512 35.8562 50.9787 29.9766 51.0671 22.5446C51.077 20.662 51.5587 18.9266 52.3059 17.3578C54.3967 12.962 58.9355 9.99767 63.838 9.80811C71.159 9.85059 76.9169 15.2661 77.3134 22.5446C77.3134 22.8583 77.3003 23.2407 77.2708 23.6427M59.7613 20.5182C59.8006 20.4136 59.8334 20.3123 59.8727 20.2077C60.4167 18.3939 62.0159 17.08 63.9035 17.08C65.2898 17.08 66.5383 17.7892 67.3052 18.8906L67.3216 18.9233L67.3379 18.9397C67.7017 19.4528 67.9442 20.0084 68.0491 20.515H59.7613V20.5182Z" fill="#36A53C"/>
<path d="M9.48392 10.6415H0V35.9902H9.48392V10.6415Z" fill="#36A53C"/>
<path fill-rule="evenodd" clip-rule="evenodd" d="M4.74207 0C7.35392 0 9.46765 2.1113 9.46765 4.70958C9.46765 7.30785 7.35064 9.42242 4.74207 9.42242C2.1335 9.42242 0.0197754 7.31439 0.0197754 4.70958C0.0197754 2.10477 2.13678 0 4.74207 0Z" fill="#36A53C"/>
</g>
<defs>
<clipPath id="clip0_1_360">
<rect width="196" height="36" fill="white"/>
</clipPath>
</defs>
</svg>
