<svg width="20" height="20" viewBox="0 0 20 20" fill="none" xmlns="http://www.w3.org/2000/svg">
<g clip-path="url(#clip0_1_161)">
<path d="M19.2765 6.60662V6.76099C19.2426 8.53804 18.6402 10.1645 17.7253 11.6931C17.4128 12.2126 17.074 12.7096 16.7013 13.1877C15.4363 14.818 13.8776 16.162 12.1796 17.3631C11.66 17.7283 11.1254 18.0746 10.5908 18.4135C10.0034 18.7824 9.38223 18.8276 8.78737 18.4662C6.43805 17.028 4.2845 15.3676 2.59028 13.1915C2.41333 12.9656 2.2439 12.7359 2.07825 12.4988C0.92994 10.8648 0.158127 9.08019 0.0188247 7.06971C0.0112948 6.96806 0.00752988 6.8664 0.00376494 6.76475H0V6.5765C0 4.74674 0.737928 3.237 2.31544 2.17906C3.98331 1.0571 5.77918 0.906507 7.56753 1.89292C8.30546 2.29953 8.96056 2.85298 9.63824 3.33113C10.3197 2.85298 10.9899 2.26188 11.7579 1.86657C15.1351 0.127164 19.1372 2.50284 19.2727 6.31296C19.2765 6.41461 19.2765 6.5125 19.2765 6.60662Z" fill="#F2F2F2"/>
<path d="M16.7011 13.1877C15.4361 14.8179 13.8774 16.162 12.1794 17.363C11.6599 17.7282 11.1253 18.0746 10.5906 18.4134C10.0033 18.7824 9.3821 18.8276 8.78724 18.4661C6.43792 17.0279 4.28437 15.3676 2.59015 13.1915H16.7011V13.1877Z" fill="#0038A8"/>
<path d="M19.2765 6.60662V6.76099H0V6.57274C0 4.74674 0.737928 3.237 2.31544 2.17906C3.98331 1.0571 5.77918 0.906506 7.56753 1.89292C8.30546 2.29953 8.96056 2.85298 9.63824 3.33113C10.3197 2.85298 10.9899 2.26188 11.7579 1.86657C15.1351 0.127164 19.1372 2.50284 19.2727 6.31296C19.2765 6.41461 19.2765 6.5125 19.2765 6.60662Z" fill="#D52B1E"/>
</g>
<defs>
<clipPath id="clip0_1_161">
<rect width="19.2765" height="19.2765" fill="white" transform="translate(0 0.337982)"/>
</clipPath>
</defs>
</svg>
