<svg width="223" height="67" viewBox="0 0 223 67" fill="none" xmlns="http://www.w3.org/2000/svg">
<g clip-path="url(#clip0_14_324)">
<path fill-rule="evenodd" clip-rule="evenodd" d="M33.034 0C14.7925 0 0 14.7925 0 33.034C0 51.2755 14.7925 66.068 33.034 66.068C51.2755 66.068 66.068 51.2755 66.068 33.034C66.068 14.7925 51.2755 0 33.034 0ZM33.034 49.6906C23.8335 49.6906 16.3775 42.2345 16.3775 33.034C16.3775 23.8335 23.8335 16.3775 33.034 16.3775C42.2345 16.3775 49.6906 23.8335 49.6906 33.034C49.6906 42.2345 42.2345 49.6906 33.034 49.6906Z" fill="#36A53C"/>
</g>
<rect x="33.034" y="61.1129" width="189.946" height="4.9551" fill="#36A53C"/>
<defs>
<clipPath id="clip0_14_324">
<rect width="66.068" height="66.068" fill="white"/>
</clipPath>
</defs>
</svg>
