<svg width="124" height="24" viewBox="0 0 124 24" fill="none" xmlns="http://www.w3.org/2000/svg">
<g clip-path="url(#clip0_25_222)">
<path fill-rule="evenodd" clip-rule="evenodd" d="M7.91318 23.3557V13.9796C7.91318 13.079 8.07078 12.154 8.4085 11.4303C10.4819 6.22584 18.7775 6.37221 20.7363 11.4425C21.0352 12.217 21.2214 13.0526 21.2214 13.9796V23.3557H15.6173V14.9209C15.6173 14.065 15.6378 13.079 14.5079 13.079C13.8345 13.079 13.5193 13.6279 13.5193 14.6485V23.3578H7.91113L7.91318 23.3557Z" fill="white"/>
<path fill-rule="evenodd" clip-rule="evenodd" d="M22.5969 4.85144H28.5183V8.00866H32.0142V11.8327H28.5183V16.3642C28.5183 17.521 29.1712 18.1675 30.4566 18.1675H32.0163V23.3495H28.637C27.4314 23.3495 26.4469 23.1706 25.7162 22.8962C24.9855 22.6217 24.3326 22.0687 23.78 21.4446C23.4238 20.8957 23.0493 20.2675 22.8712 19.5417C22.6931 18.8139 22.5969 18.1695 22.5969 17.6409V4.85144Z" fill="white"/>
<path fill-rule="evenodd" clip-rule="evenodd" d="M99.2429 12.7902C100.598 12.7902 101.697 13.8819 101.697 15.2257C101.697 16.5695 100.598 17.6653 99.2429 17.6653C97.8879 17.6653 96.7868 16.5756 96.7868 15.2257C96.7868 13.8758 97.8859 12.7902 99.2429 12.7902ZM99.2695 7.34591C103.734 7.34591 107.387 10.7755 107.387 15.2278L107.365 23.3312L101.519 23.3068V21.0909L100.414 23.3068C95.6385 23.8374 91.3525 20.0114 91.3525 15.2257C91.3525 10.7918 94.9815 7.34387 99.2675 7.34387" fill="white"/>
<path fill-rule="evenodd" clip-rule="evenodd" d="M80.3881 23.3556H85.9759V14.6666C85.9759 12.9223 87.7341 11.7818 88.9806 13.1744L92.28 9.98264C91.0949 8.39895 89.3797 7.5573 87.6952 7.37637C86.3177 7.21983 84.9627 7.50851 83.9434 8.05131C82.5557 8.78522 81.4422 9.97045 80.8384 11.4301C80.1589 12.8817 80.3861 15.2908 80.3861 17.094V23.3535L80.3881 23.3556Z" fill="white"/>
<path fill-rule="evenodd" clip-rule="evenodd" d="M50.1486 23.2296H55.7364V14.5407C55.7364 12.7964 57.4946 11.6559 58.7411 13.0484L62.0405 9.85667C60.8554 8.27298 59.1402 7.43132 57.4557 7.25039C56.0782 7.09385 54.7232 7.38253 53.7039 7.92534C52.3162 8.65924 51.2048 9.84447 50.5989 11.3041C49.9194 12.7557 50.1466 15.1648 50.1466 16.968V23.2276L50.1486 23.2296Z" fill="white"/>
<path fill-rule="evenodd" clip-rule="evenodd" d="M108.558 23.2744V17.8829C116.694 18.0578 107.496 6.78287 123.035 7.23013V12.8025C113.517 12.2313 122.245 24.4922 108.558 23.2744Z" fill="white"/>
<path fill-rule="evenodd" clip-rule="evenodd" d="M71.1979 13.0748C72.5529 13.0748 73.652 14.1645 73.652 15.5144C73.652 16.8643 72.5529 17.9499 71.1979 17.9499C69.8429 17.9499 68.7438 16.8582 68.7438 15.5144C68.7438 14.1706 69.8409 13.0748 71.1979 13.0748ZM68.9833 10.6902L70.0885 7.53092C73.4616 6.83564 77.3096 8.69175 78.6236 11.9242C78.9777 12.902 79.1558 14.006 79.1558 15.0834C79.1558 16.3581 78.9757 17.5352 78.5213 18.6289C78.0669 19.6332 77.5184 20.4342 76.7877 21.16C76.057 21.8817 75.2444 22.4367 74.2415 22.7864C71.9327 23.7155 69.0099 23.504 66.914 22.1602C65.6286 21.3348 64.7198 20.2574 64.0914 18.8058C63.4385 17.3543 63.0803 15.7299 63.0803 13.9023V1.8833H69.0037L68.9833 10.6902Z" fill="white"/>
<path fill-rule="evenodd" clip-rule="evenodd" d="M48.8776 15.6792L37.8393 15.7016C38.0665 17.5394 39.8308 18.7449 41.6443 18.1269C41.9124 18.0354 42.1478 17.885 42.4098 17.702C42.5305 17.6227 42.6513 17.5434 42.7168 17.4438L47.5206 19.7106C47.0499 20.5075 46.1943 21.3797 45.1402 22.0506C44.3031 22.5852 43.337 22.9817 42.3402 23.187C41.7364 23.311 41.0978 23.4086 40.4899 23.3517C36.1261 23.2764 32.4583 19.6191 32.5136 14.9961C32.5197 13.8251 32.8206 12.7456 33.2872 11.7698C34.5931 9.03543 37.4279 7.19152 40.4899 7.07361C45.0624 7.10004 48.6586 10.4687 48.9063 14.9961C48.9063 15.1913 48.8981 15.4291 48.8797 15.6792M37.9437 13.7357C37.9683 13.6706 37.9887 13.6076 38.0133 13.5425C38.353 12.4142 39.3519 11.597 40.5308 11.597C41.3966 11.597 42.1765 12.0381 42.6554 12.7233L42.6656 12.7436L42.6759 12.7538C42.9031 13.0729 43.0545 13.4185 43.12 13.7336H37.9437V13.7357Z" fill="white"/>
<path d="M6.54182 7.59192H0.618408V23.3597H6.54182V7.59192Z" fill="white"/>
<path fill-rule="evenodd" clip-rule="evenodd" d="M3.58004 0.972534C5.21133 0.972534 6.53151 2.28584 6.53151 3.90206C6.53151 5.51827 5.20929 6.83361 3.58004 6.83361C1.9508 6.83361 0.630615 5.52234 0.630615 3.90206C0.630615 2.28177 1.95284 0.972534 3.58004 0.972534Z" fill="white"/>
</g>
<defs>
<clipPath id="clip0_25_222">
<rect width="122.417" height="22.3933" fill="white" transform="translate(0.618408 0.972534)"/>
</clipPath>
</defs>
</svg>
